<svg width="32" height="32" viewBox="0 0 32 32" fill="none" xmlns="http://www.w3.org/2000/svg">
  <rect width="32" height="32" rx="8" fill="#0F172A"/>
  <path d="M15.6 18.4C14.8 19.2 13.5 19.8 12.2 19.8C11.3 19.8 10.4 19.5 9.7 19.1C9 18.7 8.5 18.2 8.1 17.4C7.7 16.7 7.5 15.8 7.5 14.9C7.5 14 7.7 13.1 8.1 12.4C8.5 11.7 9 11.1 9.7 10.7C10.4 10.3 11.2 10 12.1 10C13.4 10 14.8 10.6 15.6 11.4L17.7 9.3C15.7 7.3 11.4 6.7 8.7 8.5C5.9 10.3 4.5 13.9 5.5 17.2C6.5 20.5 9.6 22.8 13.1 22.8C15.4 22.8 17.6 21.9 19.2 20.3L15.6 18.4Z" fill="#8B5CF6"/>
  <path d="M16.4 13.6C17.2 12.8 18.4 12.2 19.7 12.2C20.6 12.2 21.5 12.5 22.2 12.9C22.9 13.3 23.4 13.8 23.8 14.6C24.2 15.3 24.4 16.2 24.4 17.1C24.4 18 24.2 18.9 23.8 19.6C23.4 20.3 22.9 20.9 22.2 21.3C21.5 21.7 20.7 22 19.8 22C18.5 22 17.1 21.4 16.3 20.6L14.2 22.7C16.2 24.7 20.5 25.3 23.2 23.5C26 21.7 27.4 18.1 26.4 14.8C25.4 11.5 22.3 9.2 18.8 9.2C16.5 9.2 14.3 10.1 12.7 11.7L16.4 13.6Z" fill="#14B8A6"/>
</svg>